<svg width="400" height="100" viewBox="0 0 400 100" fill="none" xmlns="http://www.w3.org/2000/svg">
  <path d="M20 20H40V60H60V80H20V20Z" fill="#0EA5E9"/>
  <path d="M70 20H90V40H110V20H130V80H110V60H90V80H70V20Z" fill="#0EA5E9"/>
  <path d="M140 20H180V40H160V50H180V70H140V50H160V40H140V20Z" fill="#0EA5E9"/>
  <path d="M190 20H210V60H230V80H190V20Z" fill="#0EA5E9"/>
  <path d="M240 20H280V40H260V80H240V20Z" fill="#0EA5E9"/>
  <path d="M290 20H330V40H310V50H330V80H290V60H310V50H290V20Z" fill="#0EA5E9"/>
  <path d="M340 20H380V40H360V50H380V70H340V50H360V40H340V20Z" fill="#0EA5E9"/>
</svg>
